<svg width="16" height="16" viewBox="0 0 16 16" fill="none" xmlns="http://www.w3.org/2000/svg">
    <path
        d="M8.65137 14.5869L12.3095 11.5084C12.3153 11.5024 12.3226 11.499 12.3302 11.499C12.3377 11.499 12.345 11.5024 12.3508 11.5084C12.3555 11.5161 12.358 11.5254 12.358 11.5351C12.358 11.5447 12.3555 11.554 12.3508 11.5617L8.67076 14.6669H8.65379L8.65137 14.5869Z"
        fill="url(#paint0_linear_1875_74974)"></path>
    <path
        d="M13.8905 2.84461L13.3135 4.11275L11.0008 5.42238L10.8723 5.4935L8.79232 8.08016C8.75595 8.12848 8.73084 8.18782 8.71959 8.25201C8.71959 8.25201 8.71959 8.25201 8.7002 8.25201C8.68081 8.25201 8.67838 8.25201 8.67596 8.25201C8.67871 8.21784 8.6733 8.18343 8.6604 8.15294C8.64749 8.12244 8.62764 8.09716 8.60323 8.08016L7.56081 7.19127L6.80202 6.53349L4.66141 5.80461L2.8699 5.18535L1.73535 2.83868L1.75232 2.81498L6.01414 1.3335L7.46869 4.22831L7.49778 4.28461C7.5194 4.32188 7.53124 4.36632 7.53172 4.41201H7.55838V4.38831V4.35572C7.55838 4.35572 7.55838 4.33201 7.55838 4.32313C7.56045 4.31041 7.56457 4.29832 7.5705 4.28757L7.58262 4.25794L8.89172 1.72461C8.89172 1.72461 8.89172 1.72461 8.90384 1.72461L13.8808 2.81498V2.84757L13.8905 2.84461Z"
        fill="#E8B67F"></path>
    <path
        d="M7.56053 7.17672L6.80174 6.52191L4.66113 5.79302L7.53871 4.4182V4.39746V4.4182L7.56053 7.17672Z"
        fill="url(#paint1_linear_1875_74974)"></path>
    <path
        d="M7.53899 4.41794L4.66141 5.79276L4.40202 5.70387L2.8699 5.18535L1.73535 2.83572L1.75232 2.81498L6.01414 1.3335L7.46869 4.22831L7.49778 4.28461C7.52328 4.3222 7.53778 4.36913 7.53899 4.41794Z"
        fill="url(#paint2_linear_1875_74974)"></path>
    <path
        d="M7.54854 4.56323L4.82854 5.86397L4.4043 5.71879L7.47824 4.2373L7.5049 4.2936C7.5268 4.32979 7.53945 4.37309 7.54127 4.41805V4.55138L7.54854 4.56323Z"
        fill="url(#paint3_linear_1875_74974)"></path>
    <path d="M2.90868 5.18531H2.8699L1.73535 2.83568L1.75232 2.81494L2.90868 5.18531Z"
        fill="#D2A679"></path>
    <path
        d="M11.0004 5.41952L10.872 5.49359L8.79196 8.08026C8.75559 8.12857 8.73048 8.18791 8.71923 8.25211C8.71923 8.25211 8.71923 8.25211 8.69984 8.25211C8.68044 8.25211 8.67802 8.25211 8.6756 8.25211C8.67835 8.21794 8.67294 8.18353 8.66004 8.15303C8.64713 8.12254 8.62727 8.09726 8.60287 8.08026L7.56044 7.19137L7.5459 4.43285V4.41211L7.56529 4.43285L11.0004 5.42248V5.41952Z"
        fill="url(#paint4_linear_1875_74974)"></path>
    <path
        d="M13.8903 2.84452L13.3133 4.11267L11.2066 5.29785L11.0006 5.41341L7.56543 4.41489C7.56902 4.3573 7.58135 4.30103 7.60179 4.24896C7.60477 4.23941 7.60885 4.23043 7.61391 4.2223L8.92301 1.68896C8.92301 1.68896 8.92301 1.68896 8.93513 1.68896L13.8806 2.81489V2.84748L13.8903 2.84452Z"
        fill="url(#paint5_linear_1875_74974)"></path>
    <path
        d="M11.2065 5.30374L10.872 5.48152L10.8283 5.53781L7.5459 4.59263L7.56044 4.42374C7.56374 4.36609 7.57609 4.30976 7.59681 4.25781L11.2065 5.30374Z"
        fill="url(#paint6_linear_1875_74974)"></path>
    <path opacity="0.75"
        d="M7.63643 4.43854V7.25928L7.55885 7.19114L7.45703 7.10521V4.46817L7.53703 4.43262H7.5637L7.63643 4.43854Z"
        fill="url(#paint7_linear_1875_74974)"></path>
    <path
        d="M8.63483 14.6226L3.64089 12.1426C3.61422 12.1426 3.60937 12.0922 3.60695 12.0478L3.39361 6.3885C3.39361 6.3885 3.40574 6.36776 3.40574 6.35591C3.39435 6.31707 3.37887 6.28022 3.35967 6.24628L1.33301 4.71443L1.34998 4.66109L6.8021 6.52183L8.60574 8.07443C8.62974 8.09196 8.64926 8.11734 8.66211 8.1477C8.67496 8.17806 8.68062 8.2122 8.67846 8.24628C8.67846 8.26405 8.69301 8.24628 8.7027 8.24628C8.7124 8.24628 8.71967 8.24628 8.7221 8.24628C8.73288 8.18188 8.75805 8.12239 8.79483 8.07443L10.87 5.48183L14.6421 3.36035L14.6663 3.40776L12.63 5.77813C12.6134 5.79572 12.6002 5.81762 12.5914 5.84222C12.5826 5.86682 12.5784 5.89351 12.5791 5.92035L12.3706 11.467C12.3706 11.5026 12.356 11.5115 12.3294 11.5352L8.67846 14.6137C8.67203 14.619 8.66443 14.6219 8.65664 14.6219C8.64886 14.6219 8.64126 14.619 8.63483 14.6137V14.6226Z"
        fill="#BF9064"></path>
    <path
        d="M8.70069 8.25778L8.66433 14.6252C8.65495 14.6295 8.64461 14.6295 8.63524 14.6252L3.6413 12.1452C3.61463 12.1304 3.60978 12.0919 3.60736 12.0504L3.3916 6.39111L8.66433 8.27852C8.66433 8.29334 8.67887 8.27852 8.68857 8.27852L8.70069 8.25778Z"
        fill="#BD8F63"></path>
    <path opacity="0.54"
        d="M8.66392 14.6045V14.6222C8.65943 14.6251 8.65444 14.6266 8.64937 14.6266C8.64431 14.6266 8.63932 14.6251 8.63483 14.6222L3.64089 12.1452C3.63215 12.1391 3.62473 12.1306 3.61924 12.1202C3.61376 12.1099 3.61038 12.0982 3.60938 12.0859L8.66392 14.6045Z"
        fill="url(#paint8_linear_1875_74974)"></path>
    <path
        d="M8.70028 8.25814C8.67846 8.25814 8.66392 8.29666 8.66149 8.32925L3.39119 6.39147C3.39119 6.37666 3.39119 6.36777 3.39119 6.36184C3.38158 6.32174 3.36686 6.28374 3.34755 6.24925L1.33301 4.71443L1.34998 4.66406L6.8021 6.52184L8.60574 8.07443C8.62974 8.09197 8.64926 8.11735 8.66211 8.14771C8.67496 8.17807 8.68062 8.21221 8.67846 8.24628C8.67846 8.2611 8.69301 8.24628 8.7027 8.24628L8.70028 8.25814Z"
        fill="url(#paint9_linear_1875_74974)"></path>
    <path
        d="M12.6305 5.77777C12.6143 5.79575 12.6013 5.81771 12.5926 5.84223C12.5838 5.86674 12.5794 5.89324 12.5796 5.92L8.74683 8.33777C8.74773 8.32272 8.745 8.30768 8.73896 8.29451C8.73293 8.28134 8.72386 8.27063 8.71289 8.2637C8.71289 8.2637 8.72744 8.2637 8.72986 8.2637C8.73228 8.2637 8.72986 8.24592 8.72986 8.23407C8.73026 8.2242 8.73026 8.21431 8.72986 8.20444C8.74235 8.16841 8.75865 8.13454 8.77834 8.1037L10.8729 5.48148L14.645 3.34814L14.6668 3.4074L12.6305 5.77777Z"
        fill="#CD9C6B"></path>
    <path
        d="M6.33211 8.89215L6.3103 7.48474C6.31207 7.45175 6.30825 7.41866 6.29907 7.38756C6.2899 7.35646 6.27556 7.32801 6.25696 7.304L4.34666 5.74844L3.44727 5.45215L5.38666 7.00474C5.40648 7.0278 5.42179 7.05602 5.43145 7.08732C5.4411 7.11861 5.44485 7.15217 5.44242 7.18548L5.46908 8.55733L6.31514 8.89511L6.33211 8.89215Z"
        fill="url(#paint10_linear_1875_74974)"></path>
    <path
        d="M8.70034 8.25771C8.67852 8.25771 8.66155 8.2992 8.66155 8.33179C8.66055 8.2646 8.64089 8.19982 8.6058 8.14808L6.79004 6.58957L6.80943 6.52734L8.6058 8.07401C8.6298 8.09155 8.64932 8.11693 8.66217 8.14729C8.67502 8.17765 8.68068 8.21178 8.67852 8.24586C8.67852 8.26068 8.69307 8.24586 8.70277 8.24586L8.70034 8.25771Z"
        fill="#D4A271"></path>
    <path d="M6.8021 6.52184L6.7827 6.58406L1.33301 4.71443L1.34998 4.66406L6.8021 6.52184Z"
        fill="#DEB37E"></path>
    <path
        d="M12.5812 5.9263L12.3728 11.473C12.3728 11.5085 12.3558 11.5174 12.3291 11.5411L8.69275 14.6137C8.68725 14.616 8.68129 14.616 8.67578 14.6137L8.71214 8.24927C8.71214 8.24927 8.72911 8.24927 8.73154 8.24927L12.5909 5.92334L12.5812 5.9263Z"
        fill="#DBAD77"></path>
    <path opacity="0.54"
        d="M12.3728 11.4697C12.3728 11.5053 12.3558 11.5142 12.3291 11.5408L8.69275 14.6105H8.67578V14.6075L12.3728 11.4697Z"
        fill="url(#paint11_linear_1875_74974)"></path>
    <path
        d="M10.9015 5.54663L8.84821 8.09774C8.79551 8.16247 8.7622 8.24702 8.75367 8.33774C8.75584 8.32211 8.75369 8.30605 8.74754 8.29209C8.74139 8.27813 8.7316 8.26708 8.71973 8.2607C8.71973 8.2607 8.73427 8.2607 8.7367 8.2607C8.73578 8.25086 8.73578 8.24092 8.7367 8.23107V8.20144C8.75017 8.1598 8.7699 8.12161 8.79488 8.08885L10.87 5.48145L10.9015 5.54663Z"
        fill="#D7AA77"></path>
    <path
        d="M10.4477 8.64008L11.0683 8.21637L11.1023 6.86526C11.1057 6.7898 11.1326 6.71878 11.1774 6.66675L13.2332 4.21045L12.6077 4.566L10.5447 7.06378C10.4988 7.12316 10.4729 7.2014 10.472 7.28304L10.4453 8.64008H10.4477Z"
        fill="url(#paint12_linear_1875_74974)"></path>
    <path d="M10.9012 5.54695L14.666 3.40769L14.6418 3.36621L10.8721 5.48177L10.9012 5.54695Z"
        fill="#F8CE93"></path>
    <defs>
        <linearGradient id="paint0_linear_1875_74974" x1="10.4865" y1="13.064" x2="10.5146"
            y2="13.0972" gradientUnits="userSpaceOnUse">
            <stop></stop>
            <stop offset="1" stop-opacity="0"></stop>
        </linearGradient>
        <linearGradient id="paint1_linear_1875_74974" x1="7.06598" y1="5.55894" x2="7.41771"
            y2="5.66867" gradientUnits="userSpaceOnUse">
            <stop stop-color="#C37A44"></stop>
            <stop offset="0.44" stop-color="#BB713D"></stop>
            <stop offset="0.64" stop-color="#A05728"></stop>
            <stop offset="1" stop-color="#964E23"></stop>
        </linearGradient>
        <linearGradient id="paint2_linear_1875_74974" x1="5.13172" y1="4.3409" x2="4.12632"
            y2="3.27827" gradientUnits="userSpaceOnUse">
            <stop stop-color="#E9B880"></stop>
            <stop offset="1" stop-color="#E4AF76"></stop>
        </linearGradient>
        <linearGradient id="paint3_linear_1875_74974" x1="5.98005" y1="5.08471" x2="5.95957"
            y2="5.04003" gradientUnits="userSpaceOnUse">
            <stop stop-color="#C37A45" stop-opacity="0"></stop>
            <stop offset="0.13" stop-color="#C37A45"></stop>
            <stop offset="0.29" stop-color="#D08D55"></stop>
            <stop offset="0.5" stop-color="#DEA167"></stop>
            <stop offset="0.7" stop-color="#E8AF73"></stop>
            <stop offset="0.86" stop-color="#ECB477"></stop>
            <stop offset="1" stop-color="#ECB477" stop-opacity="0"></stop>
        </linearGradient>
        <linearGradient id="paint4_linear_1875_74974" x1="9.0659" y1="5.44618" x2="8.03323"
            y2="7.22838" gradientUnits="userSpaceOnUse">
            <stop offset="0.09" stop-color="#AF6938"></stop>
            <stop offset="0.48" stop-color="#9A5227"></stop>
            <stop offset="0.78" stop-color="#8D4520"></stop>
        </linearGradient>
        <linearGradient id="paint5_linear_1875_74974" x1="10.5085" y1="4.07415" x2="11.0744"
            y2="3.31032" gradientUnits="userSpaceOnUse">
            <stop offset="0.03" stop-color="#E4AF76"></stop>
            <stop offset="1" stop-color="#E9B880"></stop>
        </linearGradient>
        <linearGradient id="paint6_linear_1875_74974" x1="9.37378" y1="4.9067" x2="9.38082"
            y2="4.88367" gradientUnits="userSpaceOnUse">
            <stop stop-color="#AF6A38" stop-opacity="0"></stop>
            <stop offset="0.09" stop-color="#AF6A38"></stop>
            <stop offset="0.2" stop-color="#B87542"></stop>
            <stop offset="0.58" stop-color="#D59C66"></stop>
            <stop offset="0.78" stop-color="#E4AF76"></stop>
            <stop offset="0.92" stop-color="#E4AF76" stop-opacity="0"></stop>
        </linearGradient>
        <linearGradient id="paint7_linear_1875_74974" x1="7.474" y1="5.83114" x2="7.62673"
            y2="5.83114" gradientUnits="userSpaceOnUse">
            <stop stop-color="#743F1A" stop-opacity="0"></stop>
            <stop offset="0.49" stop-color="#743F1A" stop-opacity="0.89"></stop>
            <stop offset="0.5" stop-color="#743F1A" stop-opacity="0.9"></stop>
            <stop offset="0.53" stop-color="#743F1A" stop-opacity="0.85"></stop>
            <stop offset="1" stop-color="#743F1A" stop-opacity="0"></stop>
        </linearGradient>
        <linearGradient id="paint8_linear_1875_74974" x1="6.13544" y1="13.36" x2="6.13873"
            y2="13.3546" gradientUnits="userSpaceOnUse">
            <stop stop-color="#322214"></stop>
            <stop offset="0.24" stop-color="#322314" stop-opacity="0.99"></stop>
            <stop offset="1" stop-color="#322214" stop-opacity="0"></stop>
        </linearGradient>
        <linearGradient id="paint9_linear_1875_74974" x1="5.03967" y1="6.40036" x2="4.97047"
            y2="6.57589" gradientUnits="userSpaceOnUse">
            <stop offset="0.05" stop-color="#C69866"></stop>
            <stop offset="0.42" stop-color="#BA8C5E"></stop>
            <stop offset="0.81" stop-color="#B5875B"></stop>
        </linearGradient>
        <linearGradient id="paint10_linear_1875_74974" x1="5.22424" y1="7.11437" x2="3.93192"
            y2="6.03316" gradientUnits="userSpaceOnUse">
            <stop stop-color="#845F35"></stop>
            <stop offset="0.43" stop-color="#91673C"></stop>
            <stop offset="0.44" stop-color="#976A40"></stop>
            <stop offset="0.87" stop-color="#986B40"></stop>
            <stop offset="1" stop-color="#AB8157"></stop>
        </linearGradient>
        <linearGradient id="paint11_linear_1875_74974" x1="10.5182" y1="13.046" x2="10.5215"
            y2="13.0514" gradientUnits="userSpaceOnUse">
            <stop stop-color="#322214" stop-opacity="0"></stop>
            <stop offset="1" stop-color="#322214"></stop>
        </linearGradient>
        <linearGradient id="paint12_linear_1875_74974" x1="11.6405" y1="6.96897" x2="11.9665"
            y2="5.73091" gradientUnits="userSpaceOnUse">
            <stop stop-color="#A9794B"></stop>
            <stop offset="0.39" stop-color="#AE7F53"></stop>
            <stop offset="0.46" stop-color="#AC7D50"></stop>
            <stop offset="0.62" stop-color="#A9794B"></stop>
            <stop offset="1" stop-color="#B2875D"></stop>
        </linearGradient>
    </defs>
</svg>