<svg width="19" height="19" viewBox="0 0 19 19" fill="none" xmlns="http://www.w3.org/2000/svg">
    <path
        d="M18.3 14.8L15.3 11.8C15.2 11.7 15.1 11.6 15 11.6C14.9 11.6 14.8 11.5 14.6 11.5C14.5 11.5 14.3 11.5 14.2 11.6C14.1 11.7 14 11.7 13.9 11.8L12.7 13C12.5 13.2 12.2 13.2 12 13.1C9.39997 11.8 7.19997 9.60003 5.89997 7.00003C5.79997 6.80003 5.79997 6.50003 5.99997 6.30003L7.19997 5.10004C7.49997 4.80004 7.59997 4.40003 7.39997 4.00003C7.39997 4.00003 7.39997 3.90002 7.29997 3.90002C7.29997 3.80002 7.19998 3.70003 7.09998 3.70003L4.09998 0.700027C3.89998 0.500027 3.59997 0.400024 3.39997 0.400024C3.09997 0.400024 2.89997 0.500027 2.69997 0.700027L2.59998 0.800034C2.39998 1.00003 2.09997 1.30004 1.99997 1.60004L1.89997 1.70003L1.79997 1.80003C0.499975 3.90003 0.499972 6.60004 1.99997 8.60004L3.59998 10.7C4.89998 12.4 6.49997 14 8.19997 15.3L10.3 16.9C12.3 18.4 15.1 18.5 17.1 17.1L17.2 17L17.3 16.9C17.6 16.7 17.8 16.5 18.1 16.3L18.2 16.2C18.3 16.1 18.3 16.1 18.4 16L18.5 15.9C18.7 15.6 18.6 15.1 18.3 14.8Z"
        fill="#1E62D5"></path>
</svg>