<svg width="24" height="24" viewBox="0 0 24 24" fill="none" xmlns="http://www.w3.org/2000/svg">
    <path
        d="M10.0814 5.52014C9.88426 5.66478 9.67175 5.77032 9.45084 5.83332C9.00619 5.9615 8.54549 5.9615 8.10084 5.83332C7.87961 5.77106 7.66675 5.66591 7.46936 5.52135L8.77214 4.53223L10.0814 5.52014Z"
        fill="#00A144"></path>
    <path
        d="M8.1009 5.83309L3.85183 9.058C3.74242 8.86087 3.60071 8.6981 3.43701 8.58158L7.46942 5.52112C7.66681 5.66568 7.87967 5.77083 8.1009 5.83309Z"
        fill="#00A144"></path>
    <path
        d="M14.6001 8.92619L14.0788 9.3216L9.44922 5.83308C9.67013 5.77008 9.88264 5.66454 10.0798 5.5199L14.6001 8.92619Z"
        fill="#00A144"></path>
    <path d="M7.83329 14.0616L7.82773 16.4208L3.30273 13.0084L3.30736 10.6493L7.83329 14.0616Z"
        fill="#01913A"></path>
    <path
        d="M8.10083 5.83301C8.54548 5.96119 9.00618 5.96119 9.45083 5.83301L14.0805 9.32152L13.3573 9.8705C12.1601 9.4497 10.6953 9.61173 9.71194 10.3542C8.72861 11.0966 8.51564 12.2139 9.07583 13.1244L8.35268 13.6734L3.7749 10.2151C4.0212 9.85236 4.0462 9.43156 3.85083 9.05792L8.10083 5.83301ZM8.32861 8.13773C7.89527 7.81004 7.19342 7.80883 6.76286 8.13773C6.33231 8.46663 6.33416 8.99625 6.76749 9.32273C7.20083 9.64922 7.90453 9.65042 8.33509 9.32273C8.76564 8.99504 8.76287 8.46542 8.32861 8.13894V8.13773Z"
        fill="#13C05D"></path>
    <path
        d="M8.32876 8.13801C8.76302 8.46449 8.76672 8.99533 8.33524 9.32181C7.90376 9.64829 7.20191 9.6495 6.76765 9.32181C6.33339 8.99412 6.33153 8.46328 6.76302 8.1368C7.1945 7.81032 7.89542 7.81032 8.32876 8.13801Z"
        fill="#E5E9F2"></path>
    <path
        d="M3.43605 8.58179C3.60008 8.69816 3.74212 8.86093 3.85179 9.05821C4.04716 9.43185 4.02216 9.85627 3.77586 10.2154C3.68021 10.3512 3.56863 10.4663 3.44531 10.5564C3.4009 10.5905 3.35516 10.6216 3.30827 10.6495L2.00549 9.66764L3.43605 8.58179Z"
        fill="#00A144"></path>
    <path d="M3.30741 10.6492L3.30278 13.0084L2 12.0265L2.00556 9.66736L3.30741 10.6492Z"
        fill="#01913A"></path>
    <path
        d="M14.6 8.92639L16.1741 10.1126L15.6528 10.508L14.9297 11.057C14.7481 10.7746 14.5284 10.5381 14.2815 10.3593C13.9901 10.1466 13.6789 9.98401 13.3556 9.87561L14.0787 9.32663L14.6 8.92639Z"
        fill="#E5E9F2"></path>
    <path
        d="M20.6908 13.5188C20.5273 13.6347 20.3863 13.7982 20.2788 13.9965L15.6492 10.508L16.1705 10.1125L20.6908 13.5188Z"
        fill="#00A144"></path>
    <path
        d="M3.77497 10.2152L8.35274 13.6675L7.8333 14.0616L3.30737 10.6493C3.35426 10.6214 3.4 10.5903 3.44441 10.5562C3.56774 10.4661 3.67931 10.351 3.77497 10.2152Z"
        fill="#00A144"></path>
    <path
        d="M14.9278 11.0568C14.7462 10.7744 14.5266 10.5379 14.2796 10.3591C13.9882 10.1464 13.677 9.98384 13.3537 9.87543C12.1565 9.45464 10.6917 9.61667 9.70833 10.3591C8.72499 11.1016 8.51573 12.214 9.07592 13.1245C9.25758 13.4068 9.47724 13.6432 9.72407 13.8222C10.0154 14.035 10.3266 14.1976 10.65 14.3059C11.8481 14.7267 13.313 14.5635 14.2963 13.8222C15.2796 13.081 15.488 11.9601 14.9278 11.0568ZM12.8648 11.2309C12.6637 11.111 12.4452 11.0487 12.2241 11.0484C12.4452 11.0487 12.6637 11.111 12.8648 11.2309ZM12.5759 11.5441H12.5704H12.5759ZM12.5065 11.5127C12.4812 11.5033 12.4555 11.4956 12.4296 11.4897C12.4555 11.4956 12.4812 11.5033 12.5065 11.5127ZM12.1704 11.0508C12.0791 11.0549 11.9884 11.0719 11.9 11.1016C11.9884 11.0719 12.0791 11.0549 12.1704 11.0508ZM11.7 12.7618C11.7222 12.7635 11.7445 12.7635 11.7667 12.7618C11.7445 12.7635 11.7222 12.7635 11.7 12.7618C11.5957 12.7415 11.4956 12.6942 11.4055 12.6227C11.315 12.5637 11.2392 12.4723 11.187 12.3591C11.2392 12.4723 11.315 12.5637 11.4055 12.6227C11.4956 12.6942 11.5957 12.7415 11.7 12.7618ZM11.2593 12.0363C11.2224 12.0652 11.1939 12.1092 11.1782 12.1615C11.1625 12.2137 11.1604 12.2713 11.1722 12.3253C11.1604 12.2713 11.1625 12.2137 11.1782 12.1615C11.1939 12.1092 11.2224 12.0652 11.2593 12.0363L10.85 11.7279L10.8194 11.7569L10.85 11.7279L11.2593 12.0363ZM10.913 13.2455L11.2148 13.0036L10.9157 13.2309L10.913 13.2455ZM12.4102 13.0036C12.2406 13.1278 12.049 13.1912 11.8546 13.1874C12.049 13.1912 12.2406 13.1278 12.4102 13.0036C12.5611 12.8887 12.6324 12.7618 12.6213 12.6239C12.6102 12.4861 12.5287 12.3253 12.3611 12.1403L12.1713 11.9153C12.1133 11.862 12.069 11.787 12.0444 11.7001C12.0343 11.6409 12.0602 11.5877 12.1213 11.5417C12.1778 11.4997 12.2415 11.4768 12.3065 11.4752C12.2415 11.4768 12.1778 11.4997 12.1213 11.5417C12.0602 11.5877 12.0352 11.6409 12.0444 11.7001C12.069 11.787 12.1133 11.862 12.1713 11.9153L12.3639 12.133C12.5281 12.3184 12.6148 12.4796 12.6241 12.6167C12.6352 12.7618 12.5639 12.8827 12.413 13.0036H12.4102ZM13.1852 12.428C13.338 12.289 13.4148 12.1451 13.4185 11.9976C13.4176 12.1403 13.3407 12.2841 13.188 12.4232L13.1852 12.428ZM13.1991 11.5042C13.2583 11.5572 13.3084 11.6258 13.3462 11.7055C13.384 11.7853 13.4086 11.8744 13.4185 11.9673C13.4097 11.8741 13.386 11.7843 13.349 11.7037C13.312 11.6231 13.2625 11.5535 13.2037 11.4994L13.5167 11.2575L13.1704 10.9964L13.5167 11.2575L13.1991 11.5042Z"
        fill="#E5E9F2"></path>
    <path
        d="M9.07584 13.1248C9.25751 13.407 9.47717 13.6435 9.72399 13.8225C10.0153 14.0353 10.3266 14.1978 10.6499 14.3061L9.92677 14.8551L9.40733 15.2481L7.83325 14.0619L8.3527 13.6677L9.07584 13.1248Z"
        fill="#E5E9F2"></path>
    <path d="M13.9295 18.6589L13.924 21.0169L9.3999 17.6057L9.40546 15.2478L13.9295 18.6589Z"
        fill="#01913A"></path>
    <path d="M9.40566 15.248L9.4001 17.6059L7.82788 16.4209L7.83344 14.0618L9.40566 15.248Z"
        fill="#D9DDE6"></path>
    <path d="M22 14.5066L21.9945 16.8645L20.6926 17.8524L20.6982 15.4945L22 14.5066Z" fill="#00A144"></path>
    <path
        d="M21.9999 14.5066L20.6981 15.4945C20.5341 15.378 20.3921 15.2152 20.2823 15.0181C20.1998 14.8696 20.1553 14.6907 20.1553 14.5072C20.1553 14.3236 20.1998 14.1448 20.2823 13.9963C20.3899 13.798 20.5308 13.6346 20.6944 13.5187L21.9999 14.5066Z"
        fill="#00A144"></path>
    <path
        d="M20.2788 13.9966C20.1962 14.1451 20.1517 14.324 20.1517 14.5075C20.1517 14.691 20.1962 14.8699 20.2788 15.0184L16.0288 18.2433C15.5233 18.0964 14.9976 18.1176 14.5 18.305L9.92505 14.8527L10.6482 14.3038C11.8463 14.7246 13.3112 14.5613 14.2945 13.8201C15.2778 13.0788 15.488 11.9652 14.9278 11.0619L15.651 10.5129L20.2788 13.9966ZM15.675 16.0377C16.1084 16.3654 16.8102 16.3642 17.2408 16.0377C17.6713 15.7113 17.6695 15.1816 17.2408 14.8539C16.8121 14.5262 16.1056 14.5262 15.6741 14.8539C15.2426 15.1816 15.2445 15.7113 15.6797 16.0389L15.675 16.0377Z"
        fill="#13C05D"></path>
    <path
        d="M17.2362 14.8524C17.6696 15.1801 17.6723 15.7097 17.2362 16.0362C16.8001 16.3626 16.1038 16.3651 15.6705 16.0362C15.2372 15.7073 15.2344 15.1776 15.6649 14.8512C16.0955 14.5247 16.801 14.5247 17.2362 14.8524Z"
        fill="#E5E9F2"></path>
    <path
        d="M20.2825 15.0182C20.3922 15.2154 20.5343 15.3781 20.6982 15.4946L16.6649 18.5551C16.4672 18.4103 16.254 18.3051 16.0325 18.2431L20.2825 15.0182Z"
        fill="#00A144"></path>
    <path d="M20.6981 15.4948L20.6925 17.8527L16.6592 20.9143L16.6647 18.5552L20.6981 15.4948Z"
        fill="#00A144"></path>
    <path d="M15.2333 19.642L15.2278 21.9999L13.9241 21.0169L13.9296 18.6589L15.2333 19.642Z"
        fill="#01913A"></path>
    <path
        d="M14.5001 18.3048C14.3432 18.3654 14.1922 18.4494 14.0501 18.5551C14.0056 18.5889 13.9649 18.624 13.926 18.6591L9.40747 15.2479L9.92692 14.8525L14.5001 18.3048Z"
        fill="#00A144"></path>
    <path d="M16.6648 18.5551L16.6593 20.9142L15.2278 22L15.2333 19.6421L16.6648 18.5551Z"
        fill="#00A144"></path>
    <path
        d="M16.6649 18.5549L15.2334 19.6432L13.9297 18.6601C13.9686 18.6251 14.0093 18.59 14.0538 18.5561C14.1959 18.4505 14.3469 18.3665 14.5038 18.3058C15.0013 18.1184 15.527 18.0972 16.0325 18.2442C16.254 18.3058 16.4672 18.4106 16.6649 18.5549Z"
        fill="#00A144"></path>
    <path
        d="M10.4684 12.6408L10.4092 12.2055L11.7536 11.3905L11.4694 11.1185L11.8397 10.8899L12.124 11.162L12.524 10.9201C12.6388 10.8488 12.6749 10.7992 12.6333 10.7533C12.5578 10.7098 12.4768 10.6852 12.3944 10.6807L12.5268 10.3542C12.7981 10.3651 12.9814 10.4159 13.0749 10.5054C13.3496 10.7682 13.2721 11.0326 12.8425 11.2986C12.7227 11.3766 12.599 11.4437 12.4721 11.4994L12.7342 11.7497L12.3814 11.9685L12.1194 11.717L10.9814 12.4123C11.5333 12.7049 11.9197 12.7831 12.1407 12.6469C12.2333 12.5888 12.2499 12.526 12.1833 12.4643C12.0814 12.4185 11.9751 12.392 11.8675 12.3857L11.9684 12.0362C12.083 12.0063 12.2011 12.0076 12.3153 12.0398C12.4295 12.072 12.5374 12.1346 12.6323 12.2237C12.7527 12.3446 12.7981 12.4655 12.7684 12.6106C12.7472 12.6896 12.713 12.7616 12.6682 12.8216C12.6234 12.8815 12.5692 12.928 12.5092 12.9576C12.0382 13.2519 11.3579 13.1463 10.4684 12.6408Z"
        fill="#13C05D"></path>
    <path
        d="M18.2101 17.8851C17.712 18.3011 17.2064 18.7001 16.6999 19.0943C16.4481 19.295 16.1916 19.4873 15.9379 19.6832L15.1731 20.2672L15.1425 20.2914L15.111 20.2672L14.3027 19.6542C14.0342 19.4474 13.7629 19.2455 13.4962 19.0326L12.6934 18.4014C12.4286 18.1862 12.161 17.9758 11.8981 17.7557C12.1758 17.9432 12.449 18.1403 12.724 18.3325L13.5444 18.9238C13.8221 19.1197 14.0879 19.3253 14.3592 19.5284L15.1731 20.133H15.111L15.8805 19.5611C16.1379 19.3712 16.3925 19.1777 16.6527 18.9927C17.1684 18.6143 17.686 18.2418 18.2101 17.8851Z"
        fill="#13C05D"></path>
    <path
        d="M18.2101 19.1016C17.712 19.5164 17.2064 19.9154 16.6999 20.3108C16.4481 20.5127 16.1916 20.7038 15.9379 20.8997L15.1731 21.4837L15.1425 21.5079L15.111 21.4837L13.7314 20.4353C13.2684 20.0847 12.811 19.7401 12.3536 19.3833L10.9814 18.3241L9.61475 17.2467L11.012 18.2552L12.4009 19.2769C12.8638 19.6155 13.3268 19.965 13.7897 20.3096L15.1786 21.3447H15.1166L15.886 20.7727C16.1434 20.5841 16.3981 20.3894 16.6583 20.2044C17.1684 19.8295 17.686 19.4571 18.2101 19.1016Z"
        fill="#13C05D"></path>
    <path
        d="M20.2184 17.0012C19.3851 17.6675 18.5453 18.3192 17.7046 18.9686C17.2851 19.2963 16.861 19.6131 16.4397 19.9359L15.1731 20.9033L15.1425 20.9275L15.111 20.9033L14.3027 20.2854C14.0342 20.0786 13.7629 19.8767 13.4962 19.6651L12.6934 19.0327C12.4286 18.8174 12.161 18.607 11.8981 18.387C12.1758 18.5744 12.449 18.7715 12.724 18.9637L13.5444 19.555C13.8221 19.7509 14.0879 19.9565 14.3592 20.1596L15.1731 20.7642H15.111L16.3823 19.8138C16.8073 19.4982 17.2296 19.1778 17.6564 18.867C18.5073 18.2334 19.3592 17.6094 20.2184 17.0012Z"
        fill="#13C05D"></path>
    <path
        d="M21.9575 14.988C21.5537 15.3665 21.1306 15.7027 20.7038 16.0267C20.2769 16.3508 19.8408 16.6579 19.3871 16.9252C19.7908 16.5467 20.2139 16.2105 20.6408 15.8853C21.0676 15.56 21.5047 15.2553 21.9575 14.988Z"
        fill="#13C05D"></path>
    <path
        d="M7.5287 14.4219C7.05556 14.1038 6.58796 13.7701 6.12222 13.4339C5.65648 13.0978 5.1963 12.7495 4.73333 12.4086C4.27037 12.0676 3.81389 11.7084 3.35833 11.3493L2.67593 10.8088C2.45093 10.6238 2.22315 10.446 2 10.2526C2.23704 10.411 2.4713 10.5778 2.70648 10.7362L3.40648 11.2368C3.86944 11.573 4.33241 11.9212 4.79537 12.2634C5.25833 12.6056 5.71482 12.966 6.16667 13.3251C6.61852 13.6842 7.08056 14.0446 7.5287 14.4219Z"
        fill="#13C05D"></path>
    <path
        d="M4.79537 13.1101C4.55 12.9637 4.31481 12.8017 4.07315 12.6409C3.83148 12.4801 3.6 12.3047 3.36667 12.1306C3.13333 11.9565 2.9037 11.7751 2.675 11.5877L2.33426 11.2999C2.22315 11.2007 2.10926 11.1064 2 11.0024C2.12315 11.0738 2.24352 11.1548 2.36481 11.231L2.72315 11.4728C2.96204 11.6361 3.19537 11.8102 3.42963 11.9843C3.66389 12.1584 3.89259 12.3386 4.12037 12.5272C4.34815 12.7159 4.57593 12.9057 4.79537 13.1101Z"
        fill="#13C05D"></path>
    <path
        d="M10.0814 2.98791C9.88426 3.13255 9.67175 3.2381 9.45084 3.30109C9.00619 3.42927 8.54549 3.42927 8.10084 3.30109C7.87968 3.2379 7.66689 3.13237 7.46936 2.98791L8.77214 2L10.0814 2.98791Z"
        fill="#00A144"></path>
    <path
        d="M8.1009 3.30122L3.85183 6.52613C3.74268 6.32869 3.6009 6.16586 3.43701 6.04971L7.46942 2.98804C7.66695 3.1325 7.87974 3.23803 8.1009 3.30122Z"
        fill="#00A144"></path>
    <path
        d="M14.6001 6.39433L14.0788 6.78973L9.44922 3.30122C9.67013 3.23822 9.88264 3.13268 10.0798 2.98804L14.6001 6.39433Z"
        fill="#00A144"></path>
    <path d="M7.83329 11.5295L7.82773 13.8874L3.30273 10.4763L3.30736 8.11719L7.83329 11.5295Z"
        fill="#01913A"></path>
    <path
        d="M8.10083 3.30115C8.54548 3.42933 9.00618 3.42933 9.45083 3.30115L14.0805 6.78966L13.3573 7.33864C12.1601 6.91784 10.6953 7.07987 9.71194 7.82231C8.72861 8.56476 8.51564 9.68205 9.07583 10.5853L8.35268 11.1331L3.7749 7.68326C4.0212 7.3205 4.0462 6.8997 3.85083 6.52606L8.10083 3.30115ZM8.32861 5.59861C7.89527 5.27213 7.19342 5.27092 6.76286 5.59861C6.33231 5.9263 6.33416 6.45714 6.76749 6.78362C7.20083 7.1101 7.90453 7.1101 8.33509 6.78362C8.76564 6.45714 8.76287 5.9263 8.32861 5.59861Z"
        fill="#13C05D"></path>
    <path
        d="M8.32876 5.60485C8.76302 5.93254 8.76672 6.46337 8.33524 6.78985C7.90376 7.11634 7.20191 7.11634 6.76765 6.78985C6.33339 6.46337 6.33153 5.93133 6.76302 5.60485C7.1945 5.27836 7.89542 5.27836 8.32876 5.60485Z"
        fill="#E5E9F2"></path>
    <path
        d="M3.43605 6.04968C3.60028 6.16568 3.74238 6.32852 3.85179 6.5261C4.04716 6.89974 4.02216 7.32417 3.77586 7.6833C3.67996 7.81876 3.56843 7.93382 3.44531 8.02429C3.4009 8.05842 3.35516 8.0895 3.30827 8.1174L2.00549 7.13554L3.43605 6.04968Z"
        fill="#00A144"></path>
    <path d="M3.30741 8.11736L3.30278 10.4765L2 9.49342L2.00556 7.1355L3.30741 8.11736Z"
        fill="#01913A"></path>
    <path
        d="M14.6001 6.39429L16.1741 7.57929L15.6528 7.9747L14.9278 8.52972C14.746 8.24803 14.5264 8.012 14.2797 7.83323C13.9883 7.62053 13.6771 7.45795 13.3538 7.34955L14.0769 6.80058L14.6001 6.39429Z"
        fill="#E5E9F2"></path>
    <path
        d="M20.6908 10.9868C20.5268 11.1044 20.3858 11.2699 20.2788 11.4705L15.6492 7.98073L16.1705 7.58533L20.6908 10.9868Z"
        fill="#00A144"></path>
    <path
        d="M3.77497 7.68311L8.35274 11.1353L7.8333 11.5295L3.30737 8.11721C3.35426 8.0893 3.4 8.05822 3.44441 8.0241C3.56753 7.93362 3.67906 7.81857 3.77497 7.68311Z"
        fill="#00A144"></path>
    <path
        d="M14.9278 8.5296C14.7459 8.24791 14.5263 8.01189 14.2796 7.83311C13.9882 7.62041 13.677 7.45784 13.3537 7.34943C12.1565 6.92864 10.6917 7.09067 9.70833 7.83311C8.72499 8.57555 8.51573 9.68196 9.07592 10.5852C9.25766 10.867 9.47732 11.1031 9.72407 11.2817C10.0154 11.4945 10.3266 11.6571 10.65 11.7654C11.8481 12.1862 13.313 12.023 14.2963 11.2817C15.2796 10.5405 15.488 9.42803 14.9278 8.5296ZM12.8648 8.69889C12.6638 8.57836 12.4452 8.51607 12.2241 8.5163C12.4452 8.51607 12.6638 8.57836 12.8648 8.69889ZM12.5759 9.01328H12.5704H12.5759ZM12.5065 8.98184C12.4812 8.97207 12.4555 8.964 12.4296 8.95766C12.4555 8.9636 12.4812 8.97127 12.5065 8.98063V8.98184ZM12.1704 8.51872C12.111 8.52207 12.052 8.53055 11.9935 8.54411C12.0519 8.53014 12.111 8.52126 12.1704 8.51751V8.51872ZM11.8722 8.58039L11.8926 8.57314L11.8722 8.58039ZM11.7 10.2309C11.7222 10.2333 11.7445 10.2333 11.7667 10.2309C11.7445 10.2333 11.7222 10.2333 11.7 10.2309C11.5958 10.2111 11.4957 10.1642 11.4055 10.0931C11.3147 10.0341 11.2389 9.94214 11.187 9.82828C11.2389 9.94214 11.3147 10.0341 11.4055 10.0931C11.4957 10.1638 11.5958 10.2103 11.7 10.2297V10.2309ZM11.2593 9.49696C11.2224 9.52591 11.1939 9.56992 11.1782 9.62217C11.1625 9.67442 11.1604 9.73199 11.1722 9.78595C11.1604 9.73199 11.1625 9.67442 11.1782 9.62217C11.1939 9.56992 11.2224 9.52591 11.2593 9.49696L10.85 9.18861L10.8194 9.21642L10.85 9.18861L11.2593 9.49696ZM10.9157 10.7061L11.2148 10.4788L10.9157 10.7061ZM12.413 10.4643C12.2433 10.588 12.0517 10.6513 11.8574 10.6481C12.0517 10.6513 12.2433 10.588 12.413 10.4643C12.5639 10.3434 12.6352 10.2225 12.6241 10.0846C12.613 9.94678 12.5315 9.78474 12.3639 9.60095L12.1713 9.38329C12.1132 9.32956 12.069 9.25409 12.0444 9.16685C12.0343 9.10881 12.0602 9.0556 12.1213 9.00965C12.1779 8.96775 12.2414 8.94451 12.3065 8.94194C12.2414 8.94451 12.1779 8.96775 12.1213 9.00965C12.0602 9.0556 12.0352 9.10881 12.0444 9.16685C12.069 9.25409 12.1132 9.32956 12.1713 9.38329L12.3639 9.60095C12.5278 9.78474 12.6148 9.94678 12.6241 10.0846C12.6333 10.2225 12.5639 10.3519 12.413 10.4643ZM13.188 9.88753C13.3407 9.74847 13.4176 9.60578 13.4213 9.45705C13.4176 9.6082 13.3407 9.75089 13.188 9.88994V9.88753ZM13.2018 8.96491C13.2611 9.0179 13.3112 9.08647 13.349 9.16622C13.3868 9.24596 13.4114 9.33514 13.4213 9.42803C13.4114 9.33576 13.3869 9.24718 13.3495 9.16788C13.312 9.08858 13.2624 9.02029 13.2037 8.96733L13.5167 8.72549L13.1704 8.4631L13.5167 8.72549L13.2018 8.96491Z"
        fill="#E5E9F2"></path>
    <path
        d="M9.07584 10.5853C9.25759 10.8671 9.47725 11.1032 9.72399 11.2818C10.0153 11.4946 10.3266 11.6572 10.6499 11.7655L9.92677 12.3145L9.40733 12.7147L7.83325 11.5297L8.3527 11.1343L9.07584 10.5853Z"
        fill="#E5E9F2"></path>
    <path d="M13.9295 16.1259L13.924 18.485L9.3999 15.0739L9.40546 12.7147L13.9295 16.1259Z"
        fill="#01913A"></path>
    <path d="M9.40566 12.7148L9.4001 15.0739L7.82788 13.8877L7.83344 11.5298L9.40566 12.7148Z"
        fill="#D9DDE6"></path>
    <path d="M22 11.9733L21.9945 14.3324L20.6926 15.3203L20.6982 12.9624L22 11.9733Z" fill="#00A144"></path>
    <path
        d="M22 11.9734L20.6982 12.9625C20.5335 12.8442 20.3914 12.6789 20.2824 12.4788C20.1998 12.3306 20.1553 12.1519 20.1553 11.9686C20.1553 11.7852 20.1998 11.6065 20.2824 11.4583C20.3894 11.2578 20.5304 11.0922 20.6945 10.9746L22 11.9734Z"
        fill="#00A144"></path>
    <path
        d="M20.2788 11.4645C20.1961 11.6128 20.1516 11.7914 20.1516 11.9748C20.1516 12.1582 20.1961 12.3368 20.2788 12.4851L16.0288 15.7112C15.5233 15.5643 14.9976 15.5855 14.5 15.7729L9.92505 12.3206L10.6482 11.7716C11.8463 12.1924 13.3112 12.0292 14.2945 11.288C15.2778 10.5467 15.488 9.42824 14.9278 8.52981L15.651 7.98083L20.2788 11.4645ZM15.675 13.5056C16.1084 13.8321 16.8102 13.8309 17.2408 13.5056C17.6713 13.1804 17.6695 12.6483 17.2408 12.3218C16.8121 11.9954 16.1056 11.9941 15.6741 12.3218C15.2426 12.6495 15.2445 13.1804 15.6797 13.508L15.675 13.5056Z"
        fill="#13C05D"></path>
    <path
        d="M17.2362 12.3207C17.6696 12.6472 17.6723 13.178 17.2362 13.5045C16.8001 13.831 16.1038 13.8322 15.6705 13.5045C15.2372 13.1768 15.2344 12.646 15.6649 12.3183C16.0955 11.9906 16.801 11.993 17.2362 12.3207Z"
        fill="#E5E9F2"></path>
    <path
        d="M20.2825 12.4849C20.3914 12.6849 20.5335 12.8503 20.6982 12.9685L16.6649 16.0266C16.4672 15.8818 16.254 15.7766 16.0325 15.7146L20.2825 12.4849Z"
        fill="#00A144"></path>
    <path d="M20.6981 12.9626L20.6925 15.3206L16.6592 18.381L16.6647 16.0231L20.6981 12.9626Z"
        fill="#00A144"></path>
    <path d="M15.2333 17.1089L15.2278 19.4681L13.9241 18.485L13.9296 16.1259L15.2333 17.1089Z"
        fill="#01913A"></path>
    <path
        d="M14.5001 15.7727C14.3432 15.8333 14.1922 15.9173 14.0501 16.023C14.0056 16.0568 13.9649 16.0919 13.926 16.1258L9.40747 12.7146L9.92692 12.3204L14.5001 15.7727Z"
        fill="#00A144"></path>
    <path d="M16.6648 16.0229L16.6593 18.3809L15.2278 19.4679L15.2333 17.1088L16.6648 16.0229Z"
        fill="#00A144"></path>
    <path
        d="M16.6649 16.0266L15.2334 17.1148L13.9297 16.1318C13.9686 16.0979 14.0093 16.0628 14.0538 16.029C14.1946 15.9216 14.3443 15.8356 14.5001 15.7726C14.9976 15.5852 15.5233 15.564 16.0288 15.711C16.2518 15.7737 16.4662 15.8801 16.6649 16.0266Z"
        fill="#00A144"></path>
    <path
        d="M10.4684 10.1014L10.4092 9.6673L11.7536 8.85231L11.4694 8.58024L11.8397 8.3517L12.124 8.62256L12.524 8.38072C12.6388 8.30938 12.6749 8.2598 12.6333 8.21385C12.5581 8.16915 12.4769 8.14448 12.3944 8.1413L12.5268 7.81482C12.7981 7.8257 12.9814 7.87528 13.0749 7.96597C13.3496 8.22877 13.2721 8.49318 12.8425 8.7592C12.7227 8.83715 12.599 8.90422 12.4721 8.95992L12.7342 9.21023L12.3814 9.42788L12.1194 9.17758L10.9814 9.88012C11.5333 10.1727 11.9197 10.2509 12.1407 10.1147C12.2333 10.0555 12.2499 9.99378 12.1833 9.9309C12.0813 9.88583 11.975 9.85978 11.8675 9.85352L11.9666 9.50769C12.0812 9.4775 12.1993 9.47857 12.3135 9.51082C12.4278 9.54307 12.5357 9.60582 12.6305 9.69511C12.7508 9.81603 12.7962 9.93695 12.7666 10.0821C12.7455 10.161 12.7113 10.2329 12.6665 10.2927C12.6217 10.3525 12.5673 10.3986 12.5073 10.4279C12.0376 10.7205 11.3579 10.6117 10.4684 10.1014Z"
        fill="#13C05D"></path>
    <path
        d="M18.2101 15.3529C17.712 15.7677 17.2064 16.1667 16.6999 16.5621C16.4481 16.7629 16.1916 16.9539 15.9379 17.1498L15.1731 17.735L15.1425 17.7592L15.111 17.735L14.3027 17.1147C14.0342 16.908 13.7629 16.706 13.4962 16.4932L12.6934 15.862C12.4286 15.6468 12.161 15.4352 11.8981 15.2151C12.1758 15.4037 12.449 15.6008 12.724 15.7919L13.5444 16.3844C13.8221 16.5791 14.0879 16.7846 14.3592 16.989L15.1731 17.5936H15.111L15.8805 17.0216C16.1379 16.8318 16.3925 16.6371 16.6527 16.4533C17.1684 16.0809 17.686 15.7096 18.2101 15.3529Z"
        fill="#13C05D"></path>
    <path
        d="M18.2101 16.5684C17.712 16.9832 17.2064 17.3834 16.6999 17.7776C16.4481 17.9783 16.1916 18.1694 15.9379 18.3653L15.1731 18.9505L15.1425 18.9747L15.111 18.9505L13.7314 17.9021C13.2684 17.5515 12.811 17.2056 12.3536 16.8501L10.9814 15.7909L9.61475 14.7135L11.012 15.7208L12.4009 16.7437C12.8638 17.0823 13.3268 17.4318 13.7897 17.7752L15.1786 18.8114H15.1166L15.886 18.2395C16.1434 18.0497 16.3981 17.8562 16.6583 17.6712C17.1684 17.2975 17.686 16.9251 18.2101 16.5684Z"
        fill="#13C05D"></path>
    <path
        d="M20.2184 14.468C19.3851 15.1355 18.5453 15.7872 17.7046 16.4366C17.2851 16.7643 16.861 17.0811 16.4397 17.4039L15.1731 18.3713L15.1425 18.3955L15.111 18.3713L14.3027 17.7534C14.0342 17.5466 13.7629 17.3447 13.4962 17.1319L12.6934 16.5007C12.4286 16.2854 12.161 16.075 11.8981 15.855C12.1758 16.0424 12.449 16.2395 12.724 16.4317L13.5444 17.023C13.8221 17.2189 14.0879 17.4245 14.3592 17.6276L15.1731 18.2322H15.111L16.3823 17.2818C16.8073 16.9662 17.2296 16.6458 17.6564 16.335C18.5073 15.7014 19.3592 15.0775 20.2184 14.468Z"
        fill="#13C05D"></path>
    <path
        d="M21.9575 12.4547C21.5537 12.8344 21.1306 13.1693 20.7038 13.4946C20.2769 13.8199 19.8408 14.1258 19.3871 14.393C19.7908 14.0134 20.2139 13.6784 20.6408 13.3531C21.0676 13.0279 21.5047 12.7219 21.9575 12.4547Z"
        fill="#13C05D"></path>
    <path
        d="M7.5287 11.8901C7.05556 11.5709 6.58796 11.2372 6.12222 10.9022C5.65648 10.5673 5.1963 10.2178 4.73333 9.8756C4.27037 9.5334 3.81389 9.17669 3.35833 8.81756L2.67593 8.27705C2.45093 8.09084 2.22315 7.9143 2 7.72083C2.23704 7.87923 2.4713 8.04489 2.70648 8.2045L3.40648 8.70632C3.86944 9.04247 4.33241 9.39072 4.79537 9.73171C5.25833 10.0727 5.71482 10.4343 6.16667 10.7934C6.61852 11.1525 7.08056 11.5128 7.5287 11.8901Z"
        fill="#13C05D"></path>
    <path
        d="M4.79537 10.5781C4.55 10.4318 4.31481 10.2697 4.07315 10.1016C3.83148 9.93357 3.6 9.76428 3.36667 9.59137C3.13333 9.41845 2.9037 9.23587 2.675 9.04723L2.33426 8.77154C2.22315 8.66875 2.10926 8.57323 2 8.46924C2.12315 8.54179 2.24352 8.62281 2.36481 8.69898L2.72315 8.94082C2.96204 9.10406 3.19537 9.27819 3.42963 9.4511C3.66389 9.62402 3.89259 9.8066 4.12037 9.99524C4.34815 10.1839 4.57593 10.3725 4.79537 10.5781Z"
        fill="#13C05D"></path>
</svg>